<svg width="24" height="18" viewBox="0 0 24 18" fill="none" xmlns="http://www.w3.org/2000/svg">
    <path fill-rule="evenodd" clip-rule="evenodd" d="M24 9.00977C24 9.00977 19.5 0.759766 12 0.759766C4.5 0.759766 0 9.00977 0 9.00977C0 9.00977 4.5 17.2598 12 17.2598C19.5 17.2598 24 9.00977 24 9.00977ZM1.75905 9.00976C1.84444 9.13995 1.94181 9.28461 2.05091 9.44114C2.55324 10.1619 3.29446 11.1204 4.24816 12.0741C6.18155 14.0075 8.82093 15.7598 12 15.7598C15.1791 15.7598 17.8185 14.0075 19.7518 12.0741C20.7055 11.1204 21.4468 10.1619 21.9491 9.44114C22.0582 9.28461 22.1556 9.13995 22.2409 9.00976C22.1556 8.87958 22.0582 8.73492 21.9491 8.57839C21.4468 7.85766 20.7055 6.89912 19.7518 5.94543C17.8185 4.01204 15.1791 2.25977 12 2.25977C8.82093 2.25977 6.18155 4.01204 4.24816 5.94543C3.29446 6.89912 2.55324 7.85766 2.05091 8.57839C1.94181 8.73492 1.84444 8.87958 1.75905 9.00976Z" fill="#7185A7"/>
    <path fill-rule="evenodd" clip-rule="evenodd" d="M12 5.25977C9.92893 5.25977 8.25 6.9387 8.25 9.00977C8.25 11.0808 9.92893 12.7598 12 12.7598C14.0711 12.7598 15.75 11.0808 15.75 9.00977C15.75 6.9387 14.0711 5.25977 12 5.25977ZM6.75 9.00977C6.75 6.11027 9.1005 3.75977 12 3.75977C14.8995 3.75977 17.25 6.11027 17.25 9.00977C17.25 11.9093 14.8995 14.2598 12 14.2598C9.1005 14.2598 6.75 11.9093 6.75 9.00977Z" fill="#7185A7"/>
</svg>
